<?xml version="1.0" encoding="UTF-8" standalone="no"?>
<!DOCTYPE svg PUBLIC "-//W3C//DTD SVG 1.1//EN" "http://www.w3.org/Graphics/SVG/1.1/DTD/svg11.dtd">
<svg width="100%" height="100%" viewBox="0 0 996 417" version="1.1" xmlns="http://www.w3.org/2000/svg" xmlns:xlink="http://www.w3.org/1999/xlink" xml:space="preserve" xmlns:serif="http://www.serif.com/" style="fill-rule:evenodd;clip-rule:evenodd;stroke-linejoin:round;stroke-miterlimit:2;">
    <g transform="matrix(1,0,0,1,-1.42109e-14,-276.571)">
        <g transform="matrix(3.34662,0,0,3.34662,-147.298,-196.643)">
            <text x="46.807px" y="266.332px" style="font-family:'CourierNewPS-BoldMT', 'Courier New', monospace;font-weight:700;font-size:220px;fill:rgb(32,32,39);">&lt;</text>
        </g>
        <g transform="matrix(-3.34662,0,0,3.34662,1142.63,-196.643)">
            <text x="46.807px" y="266.332px" style="font-family:'CourierNewPS-BoldMT', 'Courier New', monospace;font-weight:700;font-size:220px;fill:rgb(32,32,39);">&lt;</text>
        </g>
        <g transform="matrix(1.39325,0,0,1.22092,-93.8904,327.013)">
            <g transform="matrix(0.778807,0,0,0.527925,136.331,-57.308)">
                <path d="M400.121,176.416C400.121,150.544 387.644,129.54 372.276,129.54C356.908,129.54 344.431,150.544 344.431,176.416L344.431,530.606C344.431,556.477 356.908,577.482 372.276,577.482C387.644,577.482 400.121,556.477 400.121,530.606L400.121,176.416Z" style="fill:rgb(237,80,93);"/>
            </g>
            <g transform="matrix(0.625386,0,0,0.300615,256.317,23.0486)">
                <path d="M400.121,195.644C400.121,159.16 387.644,129.54 372.276,129.54C356.908,129.54 344.431,159.16 344.431,195.644L344.431,511.378C344.431,547.862 356.908,577.482 372.276,577.482C387.644,577.482 400.121,547.862 400.121,511.378L400.121,195.644Z" style="fill:rgb(237,80,93);"/>
            </g>
            <g transform="matrix(0.533003,0,0,0.133251,343.612,82.2137)">
                <path d="M400.121,256.642C400.121,186.492 387.644,129.54 372.276,129.54C356.908,129.54 344.431,186.492 344.431,256.642L344.431,450.38C344.431,520.53 356.908,577.482 372.276,577.482C387.644,577.482 400.121,520.53 400.121,450.38L400.121,256.642Z" style="fill:rgb(237,80,93);"/>
            </g>
            <g transform="matrix(0.533003,0,0,0.133251,112.902,82.2137)">
                <path d="M400.121,256.642C400.121,186.492 387.644,129.54 372.276,129.54C356.908,129.54 344.431,186.492 344.431,256.642L344.431,450.38C344.431,520.53 356.908,577.482 372.276,577.482C387.644,577.482 400.121,520.53 400.121,450.38L400.121,256.642Z" style="fill:rgb(237,80,93);"/>
            </g>
            <g transform="matrix(0.651781,0,0,0.300615,115.954,23.0486)">
                <path d="M400.121,198.434C400.121,160.41 387.644,129.54 372.276,129.54C356.908,129.54 344.431,160.41 344.431,198.434L344.431,508.588C344.431,546.611 356.908,577.482 372.276,577.482C387.644,577.482 400.121,546.611 400.121,508.588L400.121,198.434Z" style="fill:rgb(237,80,93);"/>
            </g>
        </g>
    </g>
</svg>
